<?xml version="1.0" encoding="UTF-8"?>
<svg version="1.1" viewBox="0 0 1404 1352" width="1280" height="1280" xmlns="http://www.w3.org/2000/svg">
<path transform="translate(686,76)" d="m0 0h12l31 5 3 1 17 2 20 7 25 12 17 9 12 9 11 9 12 11 10 11 9 11 9 12 9 15 9 17 5 14 8 27 3 18 3 25 1 26v90l-1 46-1 10v13l6 6v2l11 1h120l4 1 43 1 89 1 4 1 1 2v137l-2 13-5 18-5 7 3 9 4 17 3 7 2 3 1 21-1 440h10l25 2 12 3 1 2 1 20v25l-1 19-4 5-13 8-3 2v34l-3 6-3 3-8 2-9 1h-43l-60-2-67-1h-685l-82 2-26 1h-44l-10-3-3-3v-28l2-12-1-3-17-6-4-2-1-2v-66l5-3 13-2 26-3 4-1-1-184v-139l1-129 3-5 6-2 44-1 12-1 10-5 2-5h-2l-1-3-25-5-10-4-14-9-10-9-8-11-6-18-1-4-1-130 2-6 4-3 236-2 21-1 10-2 9-4-1-4-2-3-1-8-1-20v-113l1-43 2-21 3-17 6-21 8-23 10-19 15-22 11-13 23-23 11-9 13-9 21-12 18-8 13-4 15-4 14-1 5-2zm4 43-20 1-23 4-20 6-19 9-15 10-13 9-21 21-11 16-9 15-7 15-6 20-5 25-1 8-1 182-2 7-5 6-10 4-6 3 4 2 13 3 19 2h81l83-1h77l62 1 31-2 9-1 6-3 5-1-2-2-4-1v2l-2-1v-4l-9-7-1-27v-145l-4-37-6-24-7-19-8-15-13-19-15-16-12-10-15-10-14-8-17-8-16-5-22-4zm-208 358 1 2 2-1zm693 186 1 2z"/>
<path transform="translate(202,706)" d="m0 0h50l1 352 1 42 882 1v-285l1-109 1-1h47l1 5-1 343v96h-982v-316z" fill="#636462"/>
<path transform="translate(157,1167)" d="m0 0 1075 1v67l-1 1h-1075v-68z" fill="#626462"/>
<path transform="translate(178,1254)" d="m0 0h1032l1 1v33l-1 1h-1032l-1-1v-28z" fill="#636462"/>
<path transform="translate(678,82)" d="m0 0h33l17 2 18 4 16 5 20 8 16 8 12 7 14 10 15 13 9 9 9 11 10 13 13 21 9 20 7 21 5 23 3 22 1 128v55h-32v-135l-1-39-2-21-4-21-9-27-10-19-8-12-10-13-19-19-15-11-18-11-17-8-21-7-21-4-10-1h-32l-24 4-20 6-18 8-14 8-17 12-14 12-9 9-10 13-11 17-9 17-6 16-5 19-3 20-1 187h-32v-155l1-37 3-18 6-23 8-22 12-23 13-19 11-13 12-13 8-7 15-12 21-13 16-8 17-6 13-4 24-5z" fill="#FEFEFE"/>
<path transform="translate(154,1168)" d="m0 0h2v68l1075-1 1-66 3-1 1 2 1 20v25l-1 19-4 5-13 8-3 2v34l-3 6-3 3-8 2-9 1h-43l-60-2-67-1h-685l-82 2-26 1h-44l-10-3-3-3v-28l2-12-1-3-17-6-4-2-1-2v-66zm24 86-1 6v28l1 1h1032l1-1v-33l-2-1z" fill="#010101"/>
<path transform="translate(774,491)" d="m0 0h127v136l-4 13-6 11-9 10-10 9-14 7-12 3h-18l-15-4-13-7-10-9-9-13-6-14-1-4-1-26v-81z" fill="#2F64B6"/>
<path transform="translate(203,491)" d="m0 0h126l1 1v131l-3 14-7 14-10 12-10 8-15 7-10 2h-18l-12-3-16-8-11-10-9-13-5-14-1-6-1-131z" fill="#2F64B6"/>
<path transform="translate(1059,491)" d="m0 0h126l1 1v129l-2 13-5 13-6 9-12 12-14 8-16 4h-17l-13-3-14-7-12-11-9-13-5-11-2-11z" fill="#2F64B6"/>
<path transform="translate(488,491)" d="m0 0h127v137l-4 13-6 11-11 12-12 9-12 5-11 2h-16l-15-4-10-5-11-9-10-12-6-13-3-12z" fill="#2F64B7"/>
<path transform="translate(916,491)" d="m0 0h127v131l-2 13-5 12-8 11-11 10-10 6-12 4-5 1h-21l-11-3-12-6-10-8-8-9-8-16-3-10-1-8z" fill="#FEFEFE"/>
<path transform="translate(631,491)" d="m0 0h127v124l-2 18-5 13-7 10-11 11-13 8-15 4h-22l-13-4-10-5-12-11-6-7-8-16-3-16z" fill="#FEFEFE"/>
<path transform="translate(345,491)" d="m0 0h127v125l-2 18-5 13-6 8-2 3h-2l-2 4-10 8-12 6-12 3h-22l-13-4-11-6-10-9-7-8-6-12-3-9-1-8z" fill="#FEFEFE"/>
<path transform="translate(1166,1186)" d="m0 0h9l6 4 4 5 1 3v9l-7 8-5 3h-8l-8-5-3-5v-10l5-8z"/>
<path transform="translate(1102,1186)" d="m0 0h9l6 4 4 5 2 9-3 7-7 6-2 1h-9l-6-4-5-8v-8l5-8z"/>
<path transform="translate(271,685)" d="m0 0h7l6 2 2 4-5 9-8 6h-8l-6-2-18-1v-1l24-2 10-5 2-5h-2l-1-3z" fill="#636462"/>
<path transform="translate(1181,653)" d="m0 0 1 4-6 9 3 9 3 13-1 4-6-15-4-8 1-6 7-6zm-6 10 1 2z" fill="#636462"/>
<path transform="translate(660,82)" d="m0 0 2 1 1 2-9 1v-2h-8v-1z" fill="#383837"/>
<path transform="translate(1178,666)" d="m0 0" fill="#636462"/>
<path transform="translate(1179,664)" d="m0 0" fill="#636462"/>
</svg>
